<?xml version="1.0" encoding="utf-8"?>
<!-- Generator: Adobe Illustrator 26.3.1, SVG Export Plug-In . SVG Version: 6.00 Build 0)  -->
<svg version="1.1" id="Layer_1" xmlns="http://www.w3.org/2000/svg" xmlns:xlink="http://www.w3.org/1999/xlink" x="0px" y="0px"
	 viewBox="0 0 597.59 77.76" style="enable-background:new 0 0 597.59 77.76;" xml:space="preserve">
<style type="text/css">
	.st0{fill:#DAD1E2;}
</style>
<g>
	<path class="st0" d="M25.68,4l-1.76,10.64h16L41.68,4h8.88L48.8,14.64h8.72v9.92h-10.4l-2.96,17.76h8.16v10h-9.84l-1.76,10.56
		h-8.88l1.76-10.56h-16l-1.76,10.56H6.96l1.76-10.56H0v-10h10.4l2.96-17.76H5.12v-9.92h9.92L16.8,4H25.68z M35.28,42.32l2.96-17.76
		h-16l-2.96,17.76H35.28z"/>
	<path class="st0" d="M74.56,4h30.48l12.72,58.88h-10.08l-3.12-14.96H75.04l-3.12,14.96H61.84L74.56,4z M102.32,36.8l-4.48-21.68
		h-16L77.36,36.8H102.32z"/>
	<path class="st0" d="M134.32,16.4v18.64h0.64c1.12-11.2,7.36-19.68,18.8-19.68c12.08,0,19.6,9.52,19.6,24.24
		c0,14.8-7.52,24.32-19.6,24.32c-11.36,0-17.6-8.32-18.8-19.28h-0.64v33.12h-9.2V16.4H134.32z M151.52,53.12
		c8,0,12.64-5.6,12.64-13.52c0-7.92-4.64-13.44-12.64-13.44c-8.08,0-12.72,5.52-12.72,13.44C138.8,47.52,143.44,53.12,151.52,53.12z
		"/>
	<path class="st0" d="M206.32,16.4v10.96l-15.68-0.32v35.84h-9.36V16.4H206.32z"/>
	<path class="st0" d="M235.6,63.52c-14.32,0-22-7.28-22-20.88V16.4h9.44v24.88c0,6.96,4.8,10.96,12.56,10.96
		c7.76,0,12.56-4,12.56-10.96V16.4h9.44v26.24C257.6,56.24,249.92,63.52,235.6,63.52z"/>
	<path class="st0" d="M266.08,39.36c0-13.84,8.08-24,22.4-24c12.88,0,20.48,8.24,20.48,22.32v4.16H275.6
		c1.04,6.96,6.32,11.44,16.08,11.44c6.72,0,12.08-2.08,14.8-4.4v10.88c-3.68,2.56-9.84,4.16-16.08,4.16
		C274.72,63.92,266.08,53.84,266.08,39.36z M299.68,36.56c-0.72-7.04-4.96-10.4-11.68-10.4c-7.28,0-11.6,4-12.48,10.4H299.68z"/>
	<path class="st0" d="M316.88,0h9.2v35.04h0.64c1.12-11.2,7.36-19.68,18.8-19.68c12.08,0,19.6,9.52,19.6,24.24
		c0,14.8-7.52,24.32-19.6,24.32c-11.36,0-17.6-8.32-18.8-19.28h-0.64v18.24h-9.2V0z M343.28,53.12c8,0,12.64-5.6,12.64-13.52
		c0-7.92-4.64-13.44-12.64-13.44c-8.08,0-12.72,5.52-12.72,13.44C330.56,47.52,335.2,53.12,343.28,53.12z"/>
	<path class="st0" d="M385.28,35.92c8.64,0,13.68,4.8,14.56,11.6h0.48V27.2l-28.72-0.48V16.4h37.92v46.48h-9.2V51.84h-0.48
		c-0.88,6.88-6.08,11.84-14.48,11.84c-9.04,0-14.4-5.76-14.4-13.92C370.96,41.44,376.16,35.92,385.28,35.92z M388.24,57.04
		c4.64,0,7.76-2.88,7.76-7.28s-3.12-7.52-7.76-7.52c-4.64,0-7.68,3.12-7.68,7.52S383.6,57.04,388.24,57.04z"/>
	<path class="st0" d="M422.72,4h41.76v11.12H432.4v14.8h30.4v8.8h-30.4v24.16h-9.68V4z"/>
	<path class="st0" d="M470,39.36c0-13.84,8.08-24,22.4-24c12.88,0,20.48,8.24,20.48,22.32v4.16h-33.36
		c1.04,6.96,6.32,11.44,16.08,11.44c6.72,0,12.08-2.08,14.8-4.4v10.88c-3.68,2.56-9.84,4.16-16.08,4.16
		C478.63,63.92,470,53.84,470,39.36z M503.6,36.56c-0.72-7.04-4.96-10.4-11.68-10.4c-7.28,0-11.6,4-12.48,10.4H503.6z"/>
	<path class="st0" d="M528.95,0v62.88h-9.2V0H528.95z"/>
	<path class="st0" d="M543.67,0.16c5.12,0,7.12,2.32,7.12,5.84c0,3.44-2,5.76-7.12,5.76s-7.2-2.32-7.2-5.76
		C536.47,2.48,538.55,0.16,543.67,0.16z M548.31,16.4v46.48h-9.2V16.4H548.31z"/>
	<path class="st0" d="M556.47,16.4h41.12v18.24l-30.4,13.76v3.84l29.68,0.16v10.48h-38.8V44.24l30.4-13.68v-3.52l-32-0.16V16.4z"/>
</g>
</svg>
